<?xml version="1.0" encoding="utf-8"?>
<!-- Generator: Adobe Illustrator 22.1.0, SVG Export Plug-In . SVG Version: 6.00 Build 0)  -->
<svg version="1.1" xmlns="http://www.w3.org/2000/svg" xmlns:xlink="http://www.w3.org/1999/xlink" x="0px" y="0px"
	 viewBox="0 0 318.4 112.2" style="enable-background:new 0 0 318.4 112.2;" xml:space="preserve">
<style type="text/css">
	.st0{fill:#FFE500;}
</style>
<g>
	<path d="M81.2,46.6c-2.3-0.8-4.7-1.6-7.1-1.6c-2.6,0-5.8,0.7-5.8,3.4c0,4.2,11.3,5.8,11.3,13.9c0,8.7-7.6,11.3-15,11.3
		c-3.5,0-7-0.5-10.2-2l1.9-6.9c2.5,1.4,4.9,2.6,8.3,2.6c2.9,0,6-1,6-3.7c0-5.4-11.3-5.9-11.3-14.2c0-7.8,7.6-10.6,14.4-10.6
		c3.2,0,6.4,0.6,9.4,1.4L81.2,46.6z"/>
	<path d="M87.4,39.5h8.7l2.4,25h0.1l12.2-25h9.6l1.8,25h0.1l12.8-25h8.9l-18.5,33.3h-9.8L114,47.3h-0.1l-12.2,25.5h-9.8L87.4,39.5z"
		/>
	<path d="M149.2,39.5h8.7l-7.1,33.3H142L149.2,39.5z M152.3,25.1h8.7l-1.8,8.3h-8.7L152.3,25.1z"/>
	<path d="M185.4,46.6c-2.3-0.8-4.7-1.6-7.1-1.6c-2.6,0-5.8,0.7-5.8,3.4c0,4.2,11.3,5.8,11.3,13.9c0,8.7-7.6,11.3-15,11.3
		c-3.5,0-7-0.5-10.2-2l1.9-6.9c2.5,1.4,4.9,2.6,8.3,2.6c2.9,0,6-1,6-3.7c0-5.4-11.3-5.9-11.3-14.2c0-7.8,7.6-10.6,14.4-10.6
		c3.2,0,6.4,0.6,9.4,1.4L185.4,46.6z"/>
	<path d="M214.1,46.6c-2.3-0.8-4.7-1.6-7.1-1.6c-2.6,0-5.8,0.7-5.8,3.4c0,4.2,11.2,5.8,11.2,13.9c0,8.7-7.6,11.3-15,11.3
		c-3.5,0-7-0.5-10.2-2l1.9-6.9c2.5,1.4,4.9,2.6,8.3,2.6c2.9,0,5.9-1,5.9-3.7c0-5.4-11.3-5.9-11.3-14.2c0-7.8,7.6-10.6,14.4-10.6
		c3.2,0,6.4,0.6,9.4,1.4L214.1,46.6z"/>
	<path d="M223.3,43.8c0.3-1.6,0.6-2.9,0.7-4.3h8.2l-1,4.4h0.1c2.5-3.6,5.6-5.2,10-5.2c8.3,0,12.2,5.6,12.2,13.5
		c0,10.4-5.8,21.3-17.3,21.3c-3.8,0-7.8-1.3-9.2-5.9H227l-2.9,15.1h-8.7L223.3,43.8z M238.5,45.4c-5.9,0-9.2,7.8-9.2,13.6
		c0,4.3,1.5,7.8,5.7,7.8c7.2,0,9.6-9.1,9.6-14.3C244.6,48.5,242.5,45.4,238.5,45.4z"/>
	<path d="M262.9,43.9c0.3-1.4,0.5-2.9,0.8-4.5h8.3l-1.2,6.3h0.1c1.6-3.6,5.8-7.1,9.8-7.1c1.1,0,2.3,0.1,3.3,0.3l-1.8,8.5
		c-1-0.3-2.2-0.5-3.3-0.5c-6.2,0-9.1,5.5-10.2,10.9l-3.1,14.9H257L262.9,43.9z"/>
	<path d="M318.4,53.3c0,11.7-8.1,20.2-19.9,20.2c-9.4,0-15.1-5.8-15.1-15.2c0-11.1,8.5-19.7,19.7-19.7
		C312.1,38.7,318.4,44.1,318.4,53.3z M309.4,53.4c0-4.3-1.5-8-6.6-8c-6.9,0-10.3,7.6-10.3,13.6c0,4.4,1.8,7.8,6.8,7.8
		C306,66.8,309.4,59.1,309.4,53.4z"/>
</g>
<g>
	<polygon class="st0" points="106.4,0 99.7,33.3 55.5,33.3 62.3,0 	"/>
	<polygon class="st0" points="90.4,78.9 83.6,112.2 39.5,112.2 46.2,78.9 	"/>
	<polygon class="st0" points="51.5,38.2 44.1,74.4 0,74.4 7.4,38.2 	"/>
	<polygon class="st0" points="148.7,88.5 144.1,111.6 108.1,111.6 112.7,88.5 	"/>
	<polygon class="st0" points="194.2,88.5 189.6,111.6 164.9,111.6 169.6,88.5 	"/>
	<polygon class="st0" points="231.1,88.5 226.5,111.6 209.6,111.6 214.2,88.5 	"/>
	<polygon class="st0" points="262.3,88.5 257.7,111.6 245.8,111.6 250.4,88.5 	"/>
	<polygon class="st0" points="311,88.5 306.4,111.6 300.7,111.6 305.3,88.5 	"/>
	<polygon class="st0" points="288.4,88.5 283.8,111.6 275.6,111.6 280.2,88.5 	"/>
</g>
</svg>
